<svg xmlns="http://www.w3.org/2000/svg" viewBox="0 0 481.69 145.76"><defs><style>.cls-1{fill:#fff;}</style></defs><title>Asset 5</title><g id="Layer_2" data-name="Layer 2"><g id="Layer_1-2" data-name="Layer 1"><path class="cls-1" d="M0,0V145.76H145.66V0ZM137.69,137.89H7.87V8.07H137.69Z"/><path class="cls-1" d="M55.53,83.68l-18.48,38.1H20L44.58,72.66h24.9L74.8,83.53l-19.27.15m7.19-59.76H78.66l48.07,97.86H109.56L102,106.25,96.24,94.47,71.53,43.6Z"/><path class="cls-1" d="M175.24,84.63q5.67-5.73,14.6-5.73a20.8,20.8,0,0,1,12.9,3.94,14.85,14.85,0,0,1,6,10.35l-4.25.68a11.8,11.8,0,0,0-4.68-8.07,15.91,15.91,0,0,0-10-3.08,15.39,15.39,0,0,0-11.58,4.59q-4.44,4.59-4.43,12t4.4,12.1A15.27,15.27,0,0,0,189.78,116,16.71,16.71,0,0,0,200,112.93a12.91,12.91,0,0,0,5.21-8.16l4.18.74a15.93,15.93,0,0,1-6.59,10.35,21.52,21.52,0,0,1-13,3.94q-9.06,0-14.63-5.61t-5.57-14.65Q169.58,90.36,175.24,84.63Z"/><path class="cls-1" d="M223.05,119l20.26-39.48h2.46L266,119h-4.49l-5.05-10h-24l-5.11,10Zm31.65-13.49-10.16-20.2-10.29,20.2Z"/><path class="cls-1" d="M299.91,79.48a13.51,13.51,0,0,1,9.17,3,10.45,10.45,0,0,1,3.45,8.35,10.72,10.72,0,0,1-3.45,8.43q-3.45,3.09-9.17,3.08H284.63V119h-3.94V79.48Zm-15.28,3.64V98.76h14.91c2.83,0,5-.71,6.49-2.12a8.52,8.52,0,0,0,.07-11.46c-1.46-1.38-3.65-2.06-6.56-2.06Z"/><path class="cls-1" d="M331.83,119V79h3.75V119Z"/><path class="cls-1" d="M392.09,79.48v3.64h-16.5V119h-4V83.12H355V79.48Z"/><path class="cls-1" d="M396.63,119,416.9,79.48h2.46L439.62,119h-4.49l-5.05-10h-24L401,119Zm31.66-13.49-10.16-20.2-10.29,20.2Z"/><path class="cls-1" d="M452.15,119V79.48h4v35.85h25.44V119Z"/><path class="cls-1" d="M169.6,65.83l21-39.48H195L216,65.83h-8.87l-3.63-7H182.11l-3.64,7Zm30.55-13.37-7.33-14-7.33,14Z"/><path class="cls-1" d="M228.93,65.83V26.35h23.28q6.1,0,9.7,3.17a11,11,0,0,1,3.6,8.72,10.87,10.87,0,0,1-9.66,11.45l11.76,16.14h-9.67L246.67,50.18h-9.79V65.83Zm21.86-21.56a7,7,0,0,0,4.59-1.41,5.09,5.09,0,0,0,1.7-4.13,5.15,5.15,0,0,0-1.57-4,6.74,6.74,0,0,0-4.72-1.45H236.88v11Z"/><path class="cls-1" d="M280.36,65.83V26.35h7.94V42.67h8.13L308.5,26.35h9.86L303.27,46.06l15.09,19.77H308.5L296.37,49.51H288.3V65.83Z"/><path class="cls-1" d="M325.87,65.83l21-39.48h4.44l20.94,39.48h-8.87l-3.64-7H338.37l-3.63,7Zm30.55-13.37-7.33-14-7.33,14Z"/><path class="cls-1" d="M384.26,65.83V26.35h4.62l26.54,25.81V26.35h7.88V65.83h-4.56l-26.6-25.07V65.83Z"/><path class="cls-1" d="M435.31,65.83l21-39.48h4.44l20.94,39.48h-8.87l-3.64-7H447.81l-3.63,7Zm30.55-13.37-7.33-14-7.33,14Z"/></g></g></svg>